<svg xmlns="http://www.w3.org/2000/svg" width="77.3" height="75.9"><style type="text/css">.st1{fill:rgba(83,83,83,.6)}</style><g><title>background</title><rect id="canvas_background" width="79.3" height="77.9" x="-1" y="-1" fill="none"/></g><g><title>Layer 1</title><path id="svg_5" fill="none" stroke="null" d="m75.744505,53.198149l-35.483007,-32.061108c-0.407851,-0.368518 -1.223552,-0.737037 -1.631403,-0.737037c-0.815701,0 -1.223552,0.368518 -1.631403,0.737037l-35.483007,32.061108c-0.407851,0.368518 -0.815701,1.105555 -0.815701,1.474074c0,0.737037 0.407851,1.105555 0.815701,1.474074l3.670656,3.316666c0.407851,0.368518 1.223552,0.737037 1.631403,0.737037c0.815701,0 1.223552,-0.368518 1.631403,-0.737037l29.773098,-26.901849l29.773098,26.901849c0.407851,0.368518 1.223552,0.737037 1.631403,0.737037c0.815701,0 1.223552,-0.368518 1.631403,-0.737037l3.670656,-3.316666c0.407851,-0.368518 0.815701,-1.105555 0.815701,-1.474074c0.815701,-0.368518 0.407851,-1.105555 0,-1.474074l0,0zm0,0" class="st1" transform="rotate(-180 38.45772171020508,40.30000305175781)"/></g></svg>