<svg xmlns="http://www.w3.org/2000/svg" xmlns:xlink="http://www.w3.org/1999/xlink" id="Слой_1" x="0" y="0" version="1.1" viewBox="0 0 595.3 841.9" xml:space="preserve" style="enable-background:new 0 0 595.3 841.9"><style type="text/css">.st0{fill:#009fff}.st1{fill:#fff}</style><g><image style="overflow:visible;opacity:.3" width="156" height="156" transform="matrix(1 0 0 1 33.4803 227.3703)" xlink:href="EDFC9D70.png"/><g><circle cx="111" cy="304.9" r="35" class="st0"/></g></g><path d="M120.1,308.3l-8.7-8.7c-0.1-0.1-0.3-0.2-0.4-0.2c-0.2,0-0.3,0.1-0.4,0.2l-8.7,8.7c-0.1,0.1-0.2,0.3-0.2,0.4	c0,0.2,0.1,0.3,0.2,0.4l0.9,0.9c0.1,0.1,0.3,0.2,0.4,0.2c0.2,0,0.3-0.1,0.4-0.2l7.3-7.3l7.3,7.3c0.1,0.1,0.3,0.2,0.4,0.2	c0.2,0,0.3-0.1,0.4-0.2l0.9-0.9c0.1-0.1,0.2-0.3,0.2-0.4C120.3,308.6,120.2,308.4,120.1,308.3L120.1,308.3z M120.1,308.3" class="st1"/></svg>